<?xml version="1.0" encoding="utf-8"?>
<!-- Generator: Adobe Illustrator 25.1.0, SVG Export Plug-In . SVG Version: 6.00 Build 0)  -->
<svg version="1.0" id="Layer_1" xmlns="http://www.w3.org/2000/svg" xmlns:xlink="http://www.w3.org/1999/xlink" x="0px" y="0px"
	 viewBox="0 0 340 348.5" style="enable-background:new 0 0 340 348.5;" xml:space="preserve">
<style type="text/css">
	.st0{fill:#FFFFFF;}
</style>
<g>
	<path class="st0" d="M97.8,338.8c0-1.4,0-2.8,0-4.4c11.1,0,22.1,0,33.2,0c0-68,0-135.9,0-204c-10.9,0-21.9,0-33,0
		c0-1.5,0-2.9,0-4.4c31.9,0,63.9,0,96.1,0c0,1.3,0,2.6,0,4.2c-10.8,0-21.7,0-32.7,0c0,32.6,0,65,0,97.4c33,0,65.9,0,99,0
		c0-32.3,0-64.7,0-97.3c-10.9,0-21.9,0-33.1,0c0-1.5,0-2.9,0-4.5c32.1,0,64.1,0,96.2,0c0,1.5,0,3,0,4.5c-10.9,0-21.9,0-32.8,0
		c0,68.1,0,136,0,203.9c11,0,21.9,0,32.8,0c0,1.5,0,3,0,4.5c-32.1,0-64.2,0-96.4,0c0-1.5,0-2.9,0-4.5c11.3,0,22.2,0,33.3,0
		c0-34,0-67.9,0-101.9c-33.1,0-66,0-99,0c0,34,0,67.9,0,102c11,0,21.8,0,32.8,0c0,1.6,0,3,0,4.4C162.1,338.8,129.9,338.8,97.8,338.8
		z"/>
	<path class="st0" d="M129.5,9.7c1.4,0.3,2.8,0.7,4.2,0.8c6.3,0.6,12.2,2.7,18.1,4.7c4.8,1.6,9.6,3.6,14.4,5.1c4,1.3,8.2,1.5,12.2,0
		c1.5-0.6,3.1-1.5,4-2.8c1.9-2.4,4.2-2.9,7.1-2.3c0,19.8,0,39.7,0,59.7c-1,0-2.1,0-3,0c-1.8-5.8-3.4-11.7-5.3-17.4
		c-2.9-8.4-6.9-16.3-12.6-23.2c-7.7-9.4-17.7-15.4-29.6-18.2c-7.4-1.7-14.8-2.4-22.4-2c-10,0.6-19.7,2.4-28.6,7.3
		c-5.9,3.2-10.9,7.4-15.3,12.5C63.7,44.6,59,57.2,56,70.5c-1.5,6.6-2.4,13.3-3.3,20c-0.7,5.6-0.9,11.3-1.3,17
		c-0.2,2.9-0.4,5.9-0.4,8.9c-0.1,12.2,0.3,24.3,1.6,36.5c1.1,10.9,3.1,21.6,6.5,31.9c2.8,8.4,6.7,16.4,12.5,23.2
		c5.3,6.2,11.6,11.1,19.3,14.4c7.9,3.3,16,5,24.5,5.2c0.9,0,1.7,0.3,2.6,0.4c0.9,0.1,1.8,0,2.8,0c0,1.4,0,2.8,0,4.5
		c-3.7-0.2-7.3-0.1-10.9-0.6c-4.5-0.6-9.1-1.3-13.5-2.4c-10.1-2.6-19.6-6.7-28.4-12.4c-7.7-5-14.8-10.7-21-17.4
		c-6.2-6.7-11.6-14.1-16.1-22.1c-4.3-7.6-7.7-15.5-10-23.8c-1.5-5.6-2.5-11.4-3.6-17.1c-0.3-1.6-0.6-3.3-0.9-5c0-6.6,0-13.3,0-19.9
		c0.1-0.5,0.4-1.1,0.4-1.6c0.2-1.7,0.1-3.5,0.5-5.2c1.8-7.5,3.3-15.2,5.8-22.5c2.3-6.6,5.7-12.8,9-19c3.3-6.4,7.6-12.2,12.6-17.5
		c4.4-4.6,8.8-9.5,13.7-13.5c7.9-6.5,16.8-11.6,26.5-15.4c8.2-3.2,16.6-5.5,25.4-6.5c1.8-0.2,3.6-0.6,5.4-0.8
		C120.3,9.7,124.9,9.7,129.5,9.7z"/>
</g>
</svg>
